PathFileType	3	(X/Y/Z)	F:\ViconData\AntennenMessung\Messung1\Session1\ID01.trc
DataRate	CameraRate	NumFrames	NumMarkers	Units	OrigDataRate	OrigDataStartFrame	OrigNumFrames
120.0	120.0	4	70	mm	120.0	479	957	
Frame#	Time	Ashort			Along			Atop			A4			Bshort			Blong			Btop			B4			Cshort			Clong			Ctop			C4			Dshort			Dlong			Dtop			D4			Eshort			Elong			Etop			E4			Fshort			Flong			Ftop			F4			Gshort			Glong			Gtop			G4			Hshort			Hlong			Htop			H4			I1			I2			I3			I4			I5			WandAshort			WandAlong			WandAtop			WandA4			WandA15			WandBshort			WandB4			WandB5			WandBtop			WandBlong			WandCshort			WandClong			WandCtop			WandC4			WandC5			Acenter			Aantenna			Bcenter			Bantenna			Ccenter			Cantenna			Dcenter			Dantenna			Ecenter			Eantenna			Fcenter			Fantenna			Gcenter			Gantenna			Hcenter			Hantenna			Icenter			Iantenna			
		X1	Y1	Z1	X2	Y2	Z2	X3	Y3	Z3	X4	Y4	Z4	X5	Y5	Z5	X6	Y6	Z6	X7	Y7	Z7	X8	Y8	Z8	X9	Y9	Z9	X10	Y10	Z10	X11	Y11	Z11	X12	Y12	Z12	X13	Y13	Z13	X14	Y14	Z14	X15	Y15	Z15	X16	Y16	Z16	X17	Y17	Z17	X18	Y18	Z18	X19	Y19	Z19	X20	Y20	Z20	X21	Y21	Z21	X22	Y22	Z22	X23	Y23	Z23	X24	Y24	Z24	X25	Y25	Z25	X26	Y26	Z26	X27	Y27	Z27	X28	Y28	Z28	X29	Y29	Z29	X30	Y30	Z30	X31	Y31	Z31	X32	Y32	Z32	X33	Y33	Z33	X34	Y34	Z34	X35	Y35	Z35	X36	Y36	Z36	X37	Y37	Z37	X38	Y38	Z38	X39	Y39	Z39	X40	Y40	Z40	X41	Y41	Z41	X42	Y42	Z42	X43	Y43	Z43	X44	Y44	Z44	X45	Y45	Z45	X46	Y46	Z46	X47	Y47	Z47	X48	Y48	Z48	X49	Y49	Z49	X50	Y50	Z50	X51	Y51	Z51	X52	Y52	Z52	X53	Y53	Z53	X54	Y54	Z54	X55	Y55	Z55	X56	Y56	Z56	X57	Y57	Z57	X58	Y58	Z58	X59	Y59	Z59	X60	Y60	Z60	X61	Y61	Z61	X62	Y62	Z62	X63	Y63	Z63	X64	Y64	Z64	X65	Y65	Z65	X66	Y66	Z66	X67	Y67	Z67	X68	Y68	Z68	X69	Y69	Z69	X70	Y70	Z70	
479	3.9833333	-1038.2065	214.3735	-1644.1797	-1109.2567	203.39062	-1599.5709	-1063.5004	172.50613	-1625.6276	-1054.1049	262.12646	-1634.959	-1352.9618	235.0938	1003.9868	-1281.2755	227.15028	1052.4132	-1323.0184	194.26501	1020.7504	-1284.4556	287.93643	1052.7468	814.18585	187.32771	1209.3903	892.27258	178.32829	1179.2469	844.34601	145.60472	1198.1228	860.66211	292.38901	1167.1134	1115.8698	209.82172	-1401.7107	1056.2817	194.20753	-1460.2473	1095.1321	162.49379	-1423.9803	1069.921	238.5934	-1425.8572	-1204.5532	1686.0079	-1563.1521	-1129.0919	1688.2059	-1606.0117	-1173.0835	1724.4325	-1582.0038	-1133.5081	1581.1045	-1603.4725	-1239.608	1699.2019	1119.2158	-1309.3326	1698.8286	1071.7542	-1270.2949	1736.1597	1096.6268	-1244.84	1593.642	1106.697	988.87518	1664.241	1162.2791	957.39294	1700.4088	1183.6176	921.73438	1662.4323	1214.7526	939.83429	1659.3817	1159.9243	999.25262	1668.5715	-1579.4619	1058.9767	1670.1697	-1518.6399	1025.1056	1708.005	-1551.1376	1059.3424	1672.2186	-1585.6517	-544.89685	141.41054	-348.84937	-539.2171	147.20357	-432.49164	-573.71277	143.66592	-386.70667	-495.07712	141.95146	-382.99133	-541.67078	107.12885	-389.53723																																														-1068.8207	209.64119	-1624.9585	-1074.3508	248.24084	-1624.2632	-1321.7815	231.63873	1025.05	-1320.5	270.36224	1029.5049	848.01379	183.42905	1196.3319	851.7738	222.20393	1194.4958	1088.8174	202.73303	-1428.2858	1082.8046	241.04803	-1432.3851	-1171.8383	1686.9608	-1581.7332	-1170.543	1647.9833	-1581.4514	-1270.9498	1699.0341	1097.8813	-1271.6376	1660.0623	1099.1981	952.66748	1705.8374	1186.8204	972.71539	1733.9686	1168.7175	1026.6119	1669.3036	-1551.5996	1028.1287	1630.3358	-1552.0649	-542.47119	143.88454	-384.5701	-503.56305	144.1568	-381.90918
480	3.9916667	-1038.1833	214.30647	-1644.2662	-1109.2367	203.38217	-1599.6008	-1063.6876	172.78894	-1625.3715	-1054.0869	262.09125	-1634.9271	-1353.0569	235.09288	1004.0227	-1281.2375	227.03845	1052.3655	-1323.1147	194.24365	1020.8525	-1284.5317	287.93732	1052.7809	814.1153	187.4926	1209.4231	892.68347	178.95216	1178.7858	844.26953	145.57016	1198.1176	860.65948	292.44611	1167.0889	1115.8585	209.80945	-1401.7288	1056.2137	194.20079	-1460.197	1095.0541	162.24977	-1423.9097	1069.9413	238.69025	-1425.9202	-1204.5715	1686.012	-1563.1315	-1129.0908	1688.2104	-1606.0208	-1173.0802	1724.4222	-1581.9958	-1133.5056	1581.0945	-1603.4725	-1239.6086	1699.192	1119.2245	-1309.3408	1698.825	1071.7495	-1270.3093	1736.182	1096.6445	-1244.795	1593.6406	1106.5771	988.87128	1664.2241	1162.2709	957.47852	1700.3859	1183.6917	921.76562	1662.4038	1214.7075	939.82306	1659.3947	1159.906	999.25909	1668.5665	-1579.4581	1058.97	1670.1746	-1518.6447	1025.1168	1708.0048	-1551.1312	1059.3424	1672.2393	-1585.6161	-544.91437	141.43799	-348.86426	-539.271	147.30257	-432.4538	-573.63336	143.29872	-386.86804	-495.07822	141.9285	-382.99243	-541.6015	107.19896	-389.5401																																														-1069.0298	209.56389	-1624.8754	-1074.636	248.15532	-1624.3551	-1321.7729	231.58441	1025.0804	-1320.3811	270.31213	1029.4653	847.72699	183.83894	1196.3163	851.23242	222.63814	1194.4902	1088.7601	202.71797	-1428.2925	1082.8008	241.03589	-1432.4425	-1171.8385	1686.9652	-1581.7307	-1170.5465	1647.9877	-1581.4548	-1270.9565	1699.0271	1097.8823	-1271.6353	1660.0546	1099.1805	952.7785	1705.7996	1186.8984	972.8858	1733.9353	1168.8685	1026.624	1669.3035	-1551.5878	1028.1416	1630.3357	-1552.0476	-542.49365	143.95358	-384.71973	-503.5947	144.77164	-382.03616
481	4	-1038.1865	214.31731	-1644.2576	-1109.2548	203.37862	-1599.598	-1063.5372	172.23312	-1625.3824	-1054.1572	262.08722	-1634.9567	-1352.9015	235.22836	1003.9794	-1281.3348	227.28831	1052.321	-1323.1107	194.19164	1020.8276	-1284.4587	287.9469	1052.7358	814.12134	187.63666	1209.4285	892.31171	178.39226	1179.2488	844.28119	145.64839	1198.0912	860.68713	292.4989	1167.1565	1115.8724	209.83322	-1401.7246	1056.3275	194.2066	-1460.2229	1095.045	162.20427	-1423.9413	1069.9347	238.61143	-1425.8649	-1204.4924	1685.9344	-1563.2917	-1129.1107	1688.3254	-1606.5417	-1173.0692	1724.4048	-1581.9996	-1133.5342	1581.1342	-1603.5406	-1239.629	1699.2207	1119.2151	-1309.3329	1698.827	1071.7524	-1270.3103	1736.2023	1096.6488	-1244.7665	1593.7214	1106.4855	988.90204	1664.2742	1162.2959	957.49445	1700.4156	1183.6761	921.86029	1662.2841	1214.7109	939.83746	1659.3566	1159.9608	999.25934	1668.5856	-1579.4769	1058.9756	1670.1686	-1518.6433	1025.1183	1708.0146	-1551.1326	1059.33	1672.2068	-1585.6208	-544.9292	141.43867	-348.89365	-539.26666	147.2964	-432.46164	-573.75464	143.80363	-386.64929	-495.08273	141.93314	-382.95959	-541.60693	107.13739	-389.58041																																														-1068.9845	209.57692	-1624.9039	-1074.6133	248.16542	-1624.4095	-1321.7664	231.77403	1025.0105	-1320.3809	270.51025	1029.3215	848.08649	183.62097	1196.3186	851.97113	222.38481	1194.5093	1088.7572	202.71729	-1428.363	1082.8103	241.03366	-1432.5452	-1171.8827	1686.9686	-1582.0013	-1170.6473	1647.9882	-1582.0032	-1270.9459	1699.0437	1097.8907	-1271.6128	1660.0712	1099.1932	952.87323	1705.7332	1186.8218	972.9552	1733.8683	1168.7626	1026.6224	1669.3109	-1551.6018	1028.1368	1630.3431	-1552.0743	-542.51489	143.93613	-384.52316	-503.60532	144.10115	-381.87506
482	4.0083333	-1038.1768	214.40475	-1644.2126	-1109.2494	203.36859	-1599.6285	-1063.4324	172.96751	-1625.8552	-1054.1088	262.08301	-1634.9347	-1353.038	235.14214	1003.9824	-1281.2649	227.11481	1052.39	-1323.1016	194.19588	1020.8141	-1284.4591	287.95685	1052.7173	814.24683	187.51613	1209.3782	892.43671	178.47415	1179.1936	844.3349	145.57114	1198.1301	860.70837	292.47809	1167.1993	1115.8597	209.80475	-1401.7214	1056.2445	194.22296	-1460.2366	1095.0194	162.2458	-1423.835	1069.9591	238.67923	-1425.9019	-1204.5007	1685.9398	-1563.2959	-1129.1099	1688.2031	-1606.015	-1173.0814	1724.4298	-1582.0057	-1133.5396	1581.1282	-1603.5114	-1239.6931	1699.3198	1119.2544	-1309.3666	1698.9227	1071.7908	-1270.2629	1736.1237	1096.6265	-1244.6996	1593.8024	1106.3744	988.91101	1664.2771	1162.3204	957.47235	1700.4117	1183.6484	921.71411	1662.2983	1214.7407	939.84491	1659.3516	1159.9792	999.26605	1668.5579	-1579.46	1058.9836	1670.1815	-1518.6416	1025.1237	1708.0139	-1551.1353	1059.3483	1672.2247	-1585.6207	-544.92578	141.45679	-348.85892	-539.271	147.30043	-432.46646	-573.63159	143.33575	-386.8775	-495.07919	141.92572	-382.96762	-541.61877	107.19828	-389.50317																																														-1068.6543	209.67218	-1625.094	-1074.1464	248.27525	-1624.2933	-1321.7798	231.64612	1025.0646	-1320.4128	270.37354	1029.4601	848.03961	183.60828	1196.3326	851.81604	222.38173	1194.5005	1088.8011	202.73236	-1428.2806	1082.915	241.05528	-1432.4889	-1171.8401	1686.9202	-1581.8024	-1170.5502	1647.942	-1581.5913	-1270.9579	1699.1416	1097.9558	-1271.6902	1660.1737	1099.3567	952.78217	1705.8025	1186.8303	972.87378	1733.9366	1168.7805	1026.6353	1669.302	-1551.5862	1028.1569	1630.3342	-1552.04	-542.49976	143.96381	-384.72803	-503.60031	144.74855	-382.04221
